<?xml version="1.0" encoding="UTF-8" standalone="no"?>
<svg
   version="1.1"
   id="Capa_1"
   x="0px"
   y="0px"
   viewBox="0 0 58 69.000001"
   xml:space="preserve"
   width="58"
   height="69"
   sodipodi:docname="server.svg"
   inkscape:version="1.2.1 (9c6d41e410, 2022-07-14, custom)"
   inkscape:export-filename="server.svg"
   inkscape:export-xdpi="96"
   inkscape:export-ydpi="96"
   xmlns:inkscape="http://www.inkscape.org/namespaces/inkscape"
   xmlns:sodipodi="http://sodipodi.sourceforge.net/DTD/sodipodi-0.dtd"
   xmlns="http://www.w3.org/2000/svg"
   xmlns:svg="http://www.w3.org/2000/svg"><sodipodi:namedview
   id="namedview41"
   pagecolor="#ffffff"
   bordercolor="#666666"
   borderopacity="1.0"
   inkscape:showpageshadow="2"
   inkscape:pageopacity="0.0"
   inkscape:pagecheckerboard="0"
   inkscape:deskcolor="#d1d1d1"
   showgrid="false"
   inkscape:zoom="4.9406039"
   inkscape:cx="-12.245467"
   inkscape:cy="49.487877"
   inkscape:window-width="1920"
   inkscape:window-height="1023"
   inkscape:window-x="0"
   inkscape:window-y="29"
   inkscape:window-maximized="1"
   inkscape:current-layer="Capa_1" /><defs
   id="defs59" />

<path
   id="path1401"
   style="fill:#cacecf;fill-opacity:1;stroke-width:0.999996"
   d="M 52.45721,68.255191 H 44.542793 C 44.243,68.255191 44,68.166221 44,68.056442 V 65.95394 c 0,-0.109769 0.243,-0.198749 0.542793,-0.198749 h 7.91426 C 52.757001,65.755191 53,65.844171 53,65.95394 v 2.102444 c 0,0.109829 -0.242999,0.198807 -0.54279,0.198807 z m -39,0 H 5.5427931 c -0.2997923,0 -0.5427928,-0.08897 -0.5427928,-0.198749 V 65.95394 c 0,-0.109769 0.2430005,-0.198749 0.5427928,-0.198749 H 13.457053 C 13.757001,65.755191 14,65.844171 14,65.95394 v 2.102444 c 0,0.109829 -0.242999,0.198807 -0.54279,0.198807 z" /><path
   style="fill:#2b3c50;fill-opacity:1;stroke-width:1"
   d="M 54.501999,65.855191 H 3.4980005 C 1.5660003,65.855191 0,64.072443 0,63.106443 V 46.404192 c 0,-0.966 1.5660003,-2.549001 3.4980005,-2.549001 H 54.500997 c 1.933001,0 3.499002,1.583001 3.499002,2.549001 v 16.701751 c 0,0.9665 -1.566001,2.749248 -3.498,2.749248 z"
   id="path4"
   sodipodi:nodetypes="sssssssss"
   inkscape:label="case" /><ellipse
   style="fill:#ffd42a;fill-opacity:1;stroke:none;stroke-width:0.999996;stroke-linecap:round;stroke-linejoin:round"
   id="circle2251-7"
   cx="7.8013034"
   cy="54.85519"
   rx="1.8013027"
   ry="1.7798744" /><path
   style="fill:#1b3350;fill-opacity:1;stroke-width:1"
   d="M 54.502,43.955191 H 3.4980011 C 1.5660009,43.955191 6.4431055e-7,42.172443 6.4431055e-7,41.206443 V 24.504192 C 6.4431055e-7,23.538192 1.5660009,21.955191 3.4980011,21.955191 H 54.500998 C 56.433999,21.955191 58,23.538192 58,24.504192 v 16.701751 c 0,0.9665 -1.566001,2.749248 -3.498,2.749248 z"
   id="path4064"
   sodipodi:nodetypes="sssssssss"
   inkscape:label="case" /><path
   style="fill:#2b3c50;fill-opacity:1;stroke-width:1"
   d="M 54.502,22 H 3.4980009 C 1.5660007,22 4.6646582e-7,20.217252 4.6646582e-7,19.251252 V 2.549001 C 4.6646582e-7,1.583001 1.5660007,0 3.4980009,0 H 54.500998 C 56.433999,0 58,1.583001 58,2.549001 V 19.250752 C 58,20.217252 56.433999,22 54.502,22 Z"
   id="path4066"
   sodipodi:nodetypes="sssssssss"
   inkscape:label="case" /><ellipse
   style="fill:#ffd42a;fill-opacity:1;stroke:none;stroke-width:0.999996;stroke-linecap:round;stroke-linejoin:round"
   id="ellipse1501"
   cx="7.8013034"
   cy="32.955193"
   rx="1.8013027"
   ry="1.7798744" /><ellipse
   style="fill:#2ecc71;fill-opacity:1;stroke:none;stroke-width:0.999996;stroke-linecap:round;stroke-linejoin:round"
   id="ellipse1557"
   cx="7.8013034"
   cy="11.055192"
   rx="1.8013027"
   ry="1.7798744" /><path
   id="circle4523"
   style="fill:#839caa;stroke-width:0.999996;stroke-linecap:round;stroke-linejoin:round"
   d="m 30,34.955191 a 1.25,1.25 0 0 1 -1.25,1.25 1.25,1.25 0 0 1 -1.25,-1.25 1.25,1.25 0 0 1 1.25,-1.25 1.25,1.25 0 0 1 1.25,1.25 z m 20,0 a 1.25,1.25 0 0 1 -1.25,1.25 1.25,1.25 0 0 1 -1.25,-1.25 1.25,1.25 0 0 1 1.25,-1.25 1.25,1.25 0 0 1 1.25,1.25 z m -5,0 a 1.25,1.25 0 0 1 -1.25,1.25 1.25,1.25 0 0 1 -1.25,-1.25 1.25,1.25 0 0 1 1.25,-1.25 1.25,1.25 0 0 1 1.25,1.25 z m -5,0 a 1.25,1.25 0 0 1 -1.25,1.25 1.25,1.25 0 0 1 -1.25,-1.25 1.25,1.25 0 0 1 1.25,-1.25 1.25,1.25 0 0 1 1.25,1.25 z m -5,0 a 1.25,1.25 0 0 1 -1.25,1.25 1.25,1.25 0 0 1 -1.25,-1.25 1.25,1.25 0 0 1 1.25,-1.25 1.25,1.25 0 0 1 1.25,1.25 z m -7.5,-4 a 1.25,1.25 0 0 1 -1.25,1.25 1.25,1.25 0 0 1 -1.25,-1.25 1.25,1.25 0 0 1 1.25,-1.25 1.25,1.25 0 0 1 1.25,1.25 z m 20,0 a 1.25,1.25 0 0 1 -1.25,1.25 1.25,1.25 0 0 1 -1.25,-1.25 1.25,1.25 0 0 1 1.25,-1.25 1.25,1.25 0 0 1 1.25,1.25 z m -5,0 a 1.25,1.25 0 0 1 -1.25,1.25 1.25,1.25 0 0 1 -1.25,-1.25 1.25,1.25 0 0 1 1.25,-1.25 1.25,1.25 0 0 1 1.25,1.25 z m -5,0 a 1.25,1.25 0 0 1 -1.25,1.25 1.25,1.25 0 0 1 -1.25,-1.25 1.25,1.25 0 0 1 1.25,-1.25 1.25,1.25 0 0 1 1.25,1.25 z m -5,0 a 1.25,1.25 0 0 1 -1.25,1.25 1.25,1.25 0 0 1 -1.25,-1.25 1.25,1.25 0 0 1 1.25,-1.25 1.25,1.25 0 0 1 1.25,1.25 z" /><path
   id="circle4555"
   style="fill:#839caa;stroke-width:0.999996;stroke-linecap:round;stroke-linejoin:round"
   d="M 30,13 A 1.25,1.25 0 0 1 28.75,14.25 1.25,1.25 0 0 1 27.5,13 1.25,1.25 0 0 1 28.75,11.75 1.25,1.25 0 0 1 30,13 Z m 20,0 A 1.25,1.25 0 0 1 48.75,14.25 1.25,1.25 0 0 1 47.5,13 1.25,1.25 0 0 1 48.75,11.75 1.25,1.25 0 0 1 50,13 Z m -5,0 A 1.25,1.25 0 0 1 43.75,14.25 1.25,1.25 0 0 1 42.5,13 1.25,1.25 0 0 1 43.75,11.75 1.25,1.25 0 0 1 45,13 Z m -5,0 A 1.25,1.25 0 0 1 38.75,14.25 1.25,1.25 0 0 1 37.5,13 1.25,1.25 0 0 1 38.75,11.75 1.25,1.25 0 0 1 40,13 Z m -5,0 A 1.25,1.25 0 0 1 33.75,14.25 1.25,1.25 0 0 1 32.5,13 1.25,1.25 0 0 1 33.75,11.75 1.25,1.25 0 0 1 35,13 Z M 27.5,9 A 1.25,1.25 0 0 1 26.25,10.25 1.25,1.25 0 0 1 25,9 1.25,1.25 0 0 1 26.25,7.75 1.25,1.25 0 0 1 27.5,9 Z m 20,0 A 1.25,1.25 0 0 1 46.25,10.25 1.25,1.25 0 0 1 45,9 1.25,1.25 0 0 1 46.25,7.75 1.25,1.25 0 0 1 47.5,9 Z m -5,0 A 1.25,1.25 0 0 1 41.25,10.25 1.25,1.25 0 0 1 40,9 1.25,1.25 0 0 1 41.25,7.75 1.25,1.25 0 0 1 42.5,9 Z m -5,0 A 1.25,1.25 0 0 1 36.25,10.25 1.25,1.25 0 0 1 35,9 1.25,1.25 0 0 1 36.25,7.75 1.25,1.25 0 0 1 37.5,9 Z m -5,0 A 1.25,1.25 0 0 1 31.25,10.25 1.25,1.25 0 0 1 30,9 1.25,1.25 0 0 1 31.25,7.75 1.25,1.25 0 0 1 32.5,9 Z" /><path
   id="circle4577"
   style="fill:#839caa;stroke-width:0.999996;stroke-linecap:round;stroke-linejoin:round"
   d="m 30,56.855191 a 1.25,1.25 0 0 1 -1.25,1.25 1.25,1.25 0 0 1 -1.25,-1.25 1.25,1.25 0 0 1 1.25,-1.25 1.25,1.25 0 0 1 1.25,1.25 z m 20,0 a 1.25,1.25 0 0 1 -1.25,1.25 1.25,1.25 0 0 1 -1.25,-1.25 1.25,1.25 0 0 1 1.25,-1.25 1.25,1.25 0 0 1 1.25,1.25 z m -5,0 a 1.25,1.25 0 0 1 -1.25,1.25 1.25,1.25 0 0 1 -1.25,-1.25 1.25,1.25 0 0 1 1.25,-1.25 1.25,1.25 0 0 1 1.25,1.25 z m -5,0 a 1.25,1.25 0 0 1 -1.25,1.25 1.25,1.25 0 0 1 -1.25,-1.25 1.25,1.25 0 0 1 1.25,-1.25 1.25,1.25 0 0 1 1.25,1.25 z m -5,0 a 1.25,1.25 0 0 1 -1.25,1.25 1.25,1.25 0 0 1 -1.25,-1.25 1.25,1.25 0 0 1 1.25,-1.25 1.25,1.25 0 0 1 1.25,1.25 z m -7.5,-4 a 1.25,1.25 0 0 1 -1.25,1.25 1.25,1.25 0 0 1 -1.25,-1.25 1.25,1.25 0 0 1 1.25,-1.25 1.25,1.25 0 0 1 1.25,1.25 z m 20,0 a 1.25,1.25 0 0 1 -1.25,1.25 1.25,1.25 0 0 1 -1.25,-1.25 1.25,1.25 0 0 1 1.25,-1.25 1.25,1.25 0 0 1 1.25,1.25 z m -5,0 a 1.25,1.25 0 0 1 -1.25,1.25 1.25,1.25 0 0 1 -1.25,-1.25 1.25,1.25 0 0 1 1.25,-1.25 1.25,1.25 0 0 1 1.25,1.25 z m -5,0 a 1.25,1.25 0 0 1 -1.25,1.25 1.25,1.25 0 0 1 -1.25,-1.25 1.25,1.25 0 0 1 1.25,-1.25 1.25,1.25 0 0 1 1.25,1.25 z m -5,0 a 1.25,1.25 0 0 1 -1.25,1.25 1.25,1.25 0 0 1 -1.25,-1.25 1.25,1.25 0 0 1 1.25,-1.25 1.25,1.25 0 0 1 1.25,1.25 z" /></svg>
